<mxfile host="app.diagrams.net" modified="2023-06-02T18:18:20.346Z" agent="Mozilla/5.0 (Windows NT 10.0; Win64; x64) AppleWebKit/537.36 (KHTML, like Gecko) Chrome/112.0.0.0 Safari/537.36 OPR/98.0.0.0 (Edition std-1)" version="21.3.0" etag="UwlIyD6fbYfxoM8x6BDD" type="github">
  <diagram name="Page-1" id="ULTL43fGK0YKzGHSLntr">
    <mxGraphModel>
      <root>
        <mxCell id="0" />
        <mxCell id="1" parent="0" />
      </root>
    </mxGraphModel>
  </diagram>
</mxfile>
